<svg width="46" height="60" viewBox="0 0 46 60" fill="none" xmlns="http://www.w3.org/2000/svg">
<path d="M1.69141 21.657C1.69141 16.5666 5.81796 12.4401 10.9083 12.4401V58.4767C5.81796 58.4767 1.69141 54.3502 1.69141 49.2598V21.657Z" fill="#12CEFE"/>
<path d="M44.7314 21.657C44.7314 16.5666 40.6049 12.4401 35.5145 12.4401V58.4767C40.6049 58.4767 44.7314 54.3502 44.7314 49.2598V21.657Z" fill="#12CEFE"/>
<path d="M9.22426 0C4.12984 0 0 4.12984 0 9.22426L46 9.22426C46 4.12984 41.8702 0 36.7757 0L9.22426 0Z" fill="#12CEFE"/>
<path fill-rule="evenodd" clip-rule="evenodd" d="M21.8162 19.4585C21.8162 15.5823 18.6739 12.4401 14.7978 12.4401V51.4583C14.7978 52.1088 14.8863 52.7385 15.0518 53.3362C15.1579 53.8546 15.3133 54.363 15.5166 54.8542C15.9352 55.8656 16.5487 56.7845 17.3221 57.5585C18.0955 58.3326 19.0137 58.9466 20.0242 59.3655C21.0348 59.7844 22.1178 60 23.2116 60C24.3054 60 25.3885 59.7844 26.399 59.3655C27.4095 58.9466 28.3277 58.3326 29.1011 57.5585C29.8746 56.7845 30.4881 55.8656 30.9067 54.8542C31.3252 53.8429 31.5407 52.759 31.5407 51.6643H31.5376C31.5396 51.5959 31.5406 51.5272 31.5406 51.4583V12.4401C27.6645 12.4401 24.5222 15.5823 24.5222 19.4585V51.6643H23.2116H21.8162V19.4585Z" fill="#12CEFE"/>
</svg>
