<svg width="141" height="28" viewBox="0 0 141 28" fill="none" xmlns="http://www.w3.org/2000/svg">
<path d="M10.044 27.408C8.38933 27.408 6.746 27.1927 5.114 26.762C3.482 26.3087 2.09933 25.674 0.966 24.858L3.108 20.642C4.01467 21.2993 5.06867 21.8207 6.27 22.206C7.47133 22.5913 8.684 22.784 9.908 22.784C11.2907 22.784 12.3787 22.512 13.172 21.968C13.9653 21.424 14.362 20.676 14.362 19.724C14.362 18.8173 14.0107 18.1033 13.308 17.582C12.6053 17.0607 11.472 16.8 9.908 16.8H7.392V13.162L14.022 5.648L14.634 7.62H2.156V3.2H18.816V6.77L12.22 14.284L9.432 12.686H11.03C13.954 12.686 16.164 13.3433 17.66 14.658C19.156 15.9727 19.904 17.6613 19.904 19.724C19.904 21.0613 19.5527 22.3193 18.85 23.498C18.1473 24.654 17.0707 25.5947 15.62 26.32C14.1693 27.0453 12.3107 27.408 10.044 27.408ZM46.9951 8.436C48.4458 8.436 49.7264 8.73067 50.8371 9.32C51.9704 9.88667 52.8544 10.7707 53.4891 11.972C54.1464 13.1507 54.4751 14.6693 54.4751 16.528V27H49.1711V17.344C49.1711 15.8707 48.8651 14.7827 48.2531 14.08C47.6411 13.3773 46.7798 13.026 45.6691 13.026C44.8984 13.026 44.2071 13.2073 43.5951 13.57C42.9831 13.91 42.5071 14.4313 42.1671 15.134C41.8271 15.8367 41.6571 16.732 41.6571 17.82V27H36.3531V17.344C36.3531 15.8707 36.0471 14.7827 35.4351 14.08C34.8458 13.3773 33.9958 13.026 32.8851 13.026C32.1144 13.026 31.4231 13.2073 30.8111 13.57C30.1991 13.91 29.7231 14.4313 29.3831 15.134C29.0431 15.8367 28.8731 16.732 28.8731 17.82V27H23.5691V8.708H28.6351V13.706L27.6831 12.244C28.3178 10.9973 29.2131 10.0567 30.3691 9.422C31.5478 8.76467 32.8851 8.436 34.3811 8.436C36.0584 8.436 37.5204 8.86667 38.7671 9.728C40.0364 10.5667 40.8751 11.8587 41.2831 13.604L39.4131 13.094C40.0251 11.666 40.9998 10.5327 42.3371 9.694C43.6971 8.85533 45.2498 8.436 46.9951 8.436ZM59.2293 27V8.708H64.5333V27H59.2293ZM61.8813 6.158C60.9066 6.158 60.1133 5.87467 59.5013 5.308C58.8893 4.74133 58.5833 4.03867 58.5833 3.2C58.5833 2.36133 58.8893 1.65867 59.5013 1.092C60.1133 0.525332 60.9066 0.241998 61.8813 0.241998C62.8559 0.241998 63.6493 0.513999 64.2613 1.058C64.8733 1.57933 65.1793 2.25933 65.1793 3.098C65.1793 3.982 64.8733 4.71867 64.2613 5.308C63.6719 5.87467 62.8786 6.158 61.8813 6.158ZM80.5738 8.436C82.0245 8.436 83.3165 8.73067 84.4498 9.32C85.6058 9.88667 86.5125 10.7707 87.1698 11.972C87.8271 13.1507 88.1558 14.6693 88.1558 16.528V27H82.8518V17.344C82.8518 15.8707 82.5231 14.7827 81.8658 14.08C81.2311 13.3773 80.3245 13.026 79.1458 13.026C78.3071 13.026 77.5478 13.2073 76.8678 13.57C76.2105 13.91 75.6891 14.4427 75.3038 15.168C74.9411 15.8933 74.7598 16.8227 74.7598 17.956V27H69.4558V8.708H74.5218V13.774L73.5698 12.244C74.2271 11.02 75.1678 10.0793 76.3918 9.422C77.6158 8.76467 79.0098 8.436 80.5738 8.436ZM94.9696 27.272C94.063 27.272 93.281 26.966 92.6236 26.354C91.989 25.7193 91.6716 24.9147 91.6716 23.94C91.6716 22.9653 91.989 22.1833 92.6236 21.594C93.281 20.982 94.063 20.676 94.9696 20.676C95.899 20.676 96.681 20.982 97.3156 21.594C97.9503 22.1833 98.2676 22.9653 98.2676 23.94C98.2676 24.9147 97.9503 25.7193 97.3156 26.354C96.681 26.966 95.899 27.272 94.9696 27.272ZM109.381 27.272C107.862 27.272 106.502 26.9773 105.301 26.388C104.122 25.7987 103.204 24.9033 102.547 23.702C101.89 22.478 101.561 20.9253 101.561 19.044V8.708H106.865V18.262C106.865 19.7807 107.182 20.9027 107.817 21.628C108.474 22.3307 109.392 22.682 110.571 22.682C111.387 22.682 112.112 22.512 112.747 22.172C113.382 21.8093 113.88 21.2653 114.243 20.54C114.606 19.792 114.787 18.8627 114.787 17.752V8.708H120.091V27H115.059V21.968L115.977 23.43C115.365 24.6993 114.458 25.6627 113.257 26.32C112.078 26.9547 110.786 27.272 109.381 27.272ZM123.747 27V23.804L134.559 11.02L135.477 12.788H123.985V8.708H139.761V11.904L128.949 24.688L127.997 22.92H140.067V27H123.747Z" fill="white"/>
</svg>
