<svg width="185" height="24" viewBox="0 0 185 24" fill="none" xmlns="http://www.w3.org/2000/svg">
<path d="M11.54 23.36C9.92 23.36 8.41 23.1 7.01 22.58C5.63 22.04 4.43 21.28 3.41 20.3C2.39 19.32 1.59 18.17 1.01 16.85C0.45 15.53 0.17 14.08 0.17 12.5C0.17 10.92 0.45 9.47 1.01 8.15C1.59 6.83 2.39 5.68 3.41 4.7C4.45 3.72 5.66 2.97 7.04 2.45C8.42 1.91 9.93 1.64 11.57 1.64C13.39 1.64 15.03 1.96 16.49 2.6C17.97 3.22 19.21 4.14 20.21 5.36L17.09 8.24C16.37 7.42 15.57 6.81 14.69 6.41C13.81 5.99 12.85 5.78 11.81 5.78C10.83 5.78 9.93 5.94 9.11 6.26C8.29 6.58 7.58 7.04 6.98 7.64C6.38 8.24 5.91 8.95 5.57 9.77C5.25 10.59 5.09 11.5 5.09 12.5C5.09 13.5 5.25 14.41 5.57 15.23C5.91 16.05 6.38 16.76 6.98 17.36C7.58 17.96 8.29 18.42 9.11 18.74C9.93 19.06 10.83 19.22 11.81 19.22C12.85 19.22 13.81 19.02 14.69 18.62C15.57 18.2 16.37 17.57 17.09 16.73L20.21 19.61C19.21 20.83 17.97 21.76 16.49 22.4C15.03 23.04 13.38 23.36 11.54 23.36ZM32.9741 23V19.85L32.6741 19.16V13.52C32.6741 12.52 32.3641 11.74 31.7441 11.18C31.1441 10.62 30.2141 10.34 28.9541 10.34C28.0941 10.34 27.2441 10.48 26.4041 10.76C25.5841 11.02 24.8841 11.38 24.3041 11.84L22.6241 8.57C23.5041 7.95 24.5641 7.47 25.8041 7.13C27.0441 6.79 28.3041 6.62 29.5841 6.62C32.0441 6.62 33.9541 7.2 35.3141 8.36C36.6741 9.52 37.3541 11.33 37.3541 13.79V23H32.9741ZM28.0541 23.24C26.7941 23.24 25.7141 23.03 24.8141 22.61C23.9141 22.17 23.2241 21.58 22.7441 20.84C22.2641 20.1 22.0241 19.27 22.0241 18.35C22.0241 17.39 22.2541 16.55 22.7141 15.83C23.1941 15.11 23.9441 14.55 24.9641 14.15C25.9841 13.73 27.3141 13.52 28.9541 13.52H33.2441V16.25H29.4641C28.3641 16.25 27.6041 16.43 27.1841 16.79C26.7841 17.15 26.5841 17.6 26.5841 18.14C26.5841 18.74 26.8141 19.22 27.2741 19.58C27.7541 19.92 28.4041 20.09 29.2241 20.09C30.0041 20.09 30.7041 19.91 31.3241 19.55C31.9441 19.17 32.3941 18.62 32.6741 17.9L33.3941 20.06C33.0541 21.1 32.4341 21.89 31.5341 22.43C30.6341 22.97 29.4741 23.24 28.0541 23.24ZM41.5897 23V6.86H46.0597V11.42L45.4297 10.1C45.9097 8.96 46.6797 8.1 47.7397 7.52C48.7997 6.92 50.0897 6.62 51.6097 6.62V10.94C51.4097 10.92 51.2297 10.91 51.0697 10.91C50.9097 10.89 50.7397 10.88 50.5597 10.88C49.2797 10.88 48.2397 11.25 47.4397 11.99C46.6597 12.71 46.2697 13.84 46.2697 15.38V23H41.5897ZM63.9617 23.24C62.5417 23.24 61.3217 22.94 60.3017 22.34C59.2817 21.74 58.5017 20.83 57.9617 19.61C57.4217 18.37 57.1517 16.81 57.1517 14.93C57.1517 13.03 57.4317 11.47 57.9917 10.25C58.5717 9.03 59.3717 8.12 60.3917 7.52C61.4117 6.92 62.6017 6.62 63.9617 6.62C65.4817 6.62 66.8417 6.96 68.0417 7.64C69.2617 8.32 70.2217 9.28 70.9217 10.52C71.6417 11.76 72.0017 13.23 72.0017 14.93C72.0017 16.61 71.6417 18.07 70.9217 19.31C70.2217 20.55 69.2617 21.52 68.0417 22.22C66.8417 22.9 65.4817 23.24 63.9617 23.24ZM54.4217 23V0.739999H59.1017V10.13L58.8017 14.9L58.8917 19.7V23H54.4217ZM63.1517 19.4C63.9317 19.4 64.6217 19.22 65.2217 18.86C65.8417 18.5 66.3317 17.99 66.6917 17.33C67.0717 16.65 67.2617 15.85 67.2617 14.93C67.2617 13.99 67.0717 13.19 66.6917 12.53C66.3317 11.87 65.8417 11.36 65.2217 11C64.6217 10.64 63.9317 10.46 63.1517 10.46C62.3717 10.46 61.6717 10.64 61.0517 11C60.4317 11.36 59.9417 11.87 59.5817 12.53C59.2217 13.19 59.0417 13.99 59.0417 14.93C59.0417 15.85 59.2217 16.65 59.5817 17.33C59.9417 17.99 60.4317 18.5 61.0517 18.86C61.6717 19.22 62.3717 19.4 63.1517 19.4ZM82.8146 23.24C81.0946 23.24 79.5646 22.88 78.2246 22.16C76.9046 21.44 75.8546 20.46 75.0746 19.22C74.3146 17.96 73.9346 16.53 73.9346 14.93C73.9346 13.31 74.3146 11.88 75.0746 10.64C75.8546 9.38 76.9046 8.4 78.2246 7.7C79.5646 6.98 81.0946 6.62 82.8146 6.62C84.5146 6.62 86.0346 6.98 87.3746 7.7C88.7146 8.4 89.7646 9.37 90.5246 10.61C91.2846 11.85 91.6646 13.29 91.6646 14.93C91.6646 16.53 91.2846 17.96 90.5246 19.22C89.7646 20.46 88.7146 21.44 87.3746 22.16C86.0346 22.88 84.5146 23.24 82.8146 23.24ZM82.8146 19.4C83.5946 19.4 84.2946 19.22 84.9146 18.86C85.5346 18.5 86.0246 17.99 86.3846 17.33C86.7446 16.65 86.9246 15.85 86.9246 14.93C86.9246 13.99 86.7446 13.19 86.3846 12.53C86.0246 11.87 85.5346 11.36 84.9146 11C84.2946 10.64 83.5946 10.46 82.8146 10.46C82.0346 10.46 81.3346 10.64 80.7146 11C80.0946 11.36 79.5946 11.87 79.2146 12.53C78.8546 13.19 78.6746 13.99 78.6746 14.93C78.6746 15.85 78.8546 16.65 79.2146 17.33C79.5946 17.99 80.0946 18.5 80.7146 18.86C81.3346 19.22 82.0346 19.4 82.8146 19.4ZM93.4777 23V20.18L103.018 8.9L103.828 10.46H93.6877V6.86H107.608V9.68L98.0677 20.96L97.2277 19.4H107.878V23H93.4777ZM118.352 23.24C116.632 23.24 115.102 22.88 113.762 22.16C112.442 21.44 111.392 20.46 110.612 19.22C109.852 17.96 109.472 16.53 109.472 14.93C109.472 13.31 109.852 11.88 110.612 10.64C111.392 9.38 112.442 8.4 113.762 7.7C115.102 6.98 116.632 6.62 118.352 6.62C120.052 6.62 121.572 6.98 122.912 7.7C124.252 8.4 125.302 9.37 126.062 10.61C126.822 11.85 127.202 13.29 127.202 14.93C127.202 16.53 126.822 17.96 126.062 19.22C125.302 20.46 124.252 21.44 122.912 22.16C121.572 22.88 120.052 23.24 118.352 23.24ZM118.352 19.4C119.132 19.4 119.832 19.22 120.452 18.86C121.072 18.5 121.562 17.99 121.922 17.33C122.282 16.65 122.462 15.85 122.462 14.93C122.462 13.99 122.282 13.19 121.922 12.53C121.562 11.87 121.072 11.36 120.452 11C119.832 10.64 119.132 10.46 118.352 10.46C117.572 10.46 116.872 10.64 116.252 11C115.632 11.36 115.132 11.87 114.752 12.53C114.392 13.19 114.212 13.99 114.212 14.93C114.212 15.85 114.392 16.65 114.752 17.33C115.132 17.99 115.632 18.5 116.252 18.86C116.872 19.22 117.572 19.4 118.352 19.4ZM130.33 23V6.86H134.8V11.42L134.17 10.1C134.65 8.96 135.42 8.1 136.48 7.52C137.54 6.92 138.83 6.62 140.35 6.62V10.94C140.15 10.92 139.97 10.91 139.81 10.91C139.65 10.89 139.48 10.88 139.3 10.88C138.02 10.88 136.98 11.25 136.18 11.99C135.4 12.71 135.01 13.84 135.01 15.38V23H130.33ZM144.727 23.24C143.927 23.24 143.237 22.97 142.657 22.43C142.097 21.87 141.817 21.16 141.817 20.3C141.817 19.44 142.097 18.75 142.657 18.23C143.237 17.69 143.927 17.42 144.727 17.42C145.547 17.42 146.237 17.69 146.797 18.23C147.357 18.75 147.637 19.44 147.637 20.3C147.637 21.16 147.357 21.87 146.797 22.43C146.237 22.97 145.547 23.24 144.727 23.24ZM157.443 23.24C156.103 23.24 154.903 22.98 153.843 22.46C152.803 21.94 151.993 21.15 151.413 20.09C150.833 19.01 150.543 17.64 150.543 15.98V6.86H155.223V15.29C155.223 16.63 155.503 17.62 156.063 18.26C156.643 18.88 157.453 19.19 158.493 19.19C159.213 19.19 159.853 19.04 160.413 18.74C160.973 18.42 161.413 17.94 161.733 17.3C162.053 16.64 162.213 15.82 162.213 14.84V6.86H166.893V23H162.453V18.56L163.263 19.85C162.723 20.97 161.923 21.82 160.863 22.4C159.823 22.96 158.683 23.24 157.443 23.24ZM170.118 23V20.18L179.658 8.9L180.468 10.46H170.328V6.86H184.248V9.68L174.708 20.96L173.868 19.4H184.518V23H170.118Z" fill="white"/>
</svg>
