<svg width="131" height="85" viewBox="0 0 131 85" fill="none" xmlns="http://www.w3.org/2000/svg">
<path d="M43.7021 21.7146C43.7021 16.5924 47.8545 12.4401 52.9767 12.4401V58.4767C47.8545 58.4767 43.7021 54.3244 43.7021 49.2022V21.7146Z" fill="#12CEFE"/>
<path d="M87.0112 21.7146C87.0112 16.5924 82.8589 12.4401 77.7367 12.4401V58.4767C82.8589 58.4767 87.0112 54.3244 87.0112 49.2022V21.7146Z" fill="#12CEFE"/>
<path d="M51.2243 0C46.1298 0 42 4.12984 42 9.22426L88.2875 9.22426C88.2875 4.12984 84.1577 0 79.0632 0L51.2243 0Z" fill="#12CEFE"/>
<path fill-rule="evenodd" clip-rule="evenodd" d="M63.9524 19.5023C63.9524 15.6019 60.7905 12.4401 56.8901 12.4401V51.4145C56.8901 52.0369 56.9707 52.6405 57.1219 53.2155C57.2285 53.7757 57.393 54.3249 57.6134 54.8542C58.0346 55.8656 58.652 56.7845 59.4302 57.5585C60.2085 58.3326 61.1324 58.9466 62.1492 59.3655C63.1661 59.7844 64.2559 60 65.3566 60C66.4572 60 67.547 59.7844 68.5639 59.3655C69.5807 58.9466 70.5046 58.3326 71.2829 57.5585C72.0611 56.7845 72.6785 55.8656 73.0997 54.8542C73.5209 53.8429 73.7377 52.759 73.7377 51.6643H73.7333C73.7361 51.5814 73.7376 51.4981 73.7376 51.4145V12.4401C69.8372 12.4401 66.6754 15.6019 66.6754 19.5023V51.6643H65.3566H63.9524V19.5023Z" fill="#12CEFE"/>
<path d="M2.70011 84.3875V78.4157C2.70011 78.0478 2.79537 77.7127 2.98589 77.4105C3.17641 77.1083 3.43263 76.8653 3.75454 76.6813C4.07645 76.4974 4.42792 76.4054 4.80896 76.4054C5.20314 76.4054 5.5579 76.4974 5.87324 76.6813C6.18858 76.8653 6.44151 77.1083 6.63203 77.4105C6.82255 77.7127 6.91781 78.0478 6.91781 78.4157V84.3875H9.61792V78.4157C9.61792 78.0478 9.71318 77.7127 9.9037 77.4105C10.0942 77.1083 10.3504 76.8653 10.6723 76.6813C10.9943 76.4974 11.3457 76.4054 11.7268 76.4054C12.1209 76.4054 12.4757 76.4974 12.7911 76.6813C13.1064 76.8653 13.3593 77.1083 13.5498 77.4105C13.7404 77.7127 13.8356 78.0478 13.8356 78.4157V84.3875H16.5357V78.4157C16.5357 77.6273 16.3452 76.9047 15.9642 76.2477C15.5831 75.5907 15.0346 75.0685 14.3185 74.6809C13.6024 74.2932 12.7385 74.0994 11.7268 74.0994C11.2406 74.0994 10.7873 74.1553 10.3669 74.267C9.9464 74.3787 9.5588 74.5396 9.20404 74.7498C8.84928 74.9601 8.53394 75.2097 8.25801 75.4988H8.2383C7.97552 75.2097 7.66675 74.9601 7.31199 74.7498C6.95723 74.5396 6.57291 74.3787 6.15902 74.267C5.74513 74.1553 5.29511 74.0994 4.80896 74.0994C3.79724 74.0994 2.93334 74.2932 2.21725 74.6809C1.50116 75.0685 0.952595 75.5907 0.571557 76.2477C0.190519 76.9047 0 77.6273 0 78.4157V84.3875H2.70011ZM23.472 84.624C24.0501 84.624 24.5494 84.5386 24.9699 84.3678C25.3904 84.1969 25.7484 83.967 26.044 83.6779C26.3397 83.3889 26.586 83.067 26.7831 82.7122H26.8225V84.3875H29.5226V79.3814C29.5226 78.4091 29.319 77.5222 28.9117 76.7207C28.5043 75.9192 27.9131 75.282 27.1379 74.809C26.3627 74.3359 25.4101 74.0994 24.2801 74.0994C23.1632 74.0994 22.2041 74.3327 21.4026 74.7991C20.6011 75.2656 19.9868 75.8995 19.5598 76.701C19.1328 77.5025 18.9193 78.396 18.9193 79.3814C18.9193 80.3406 19.1065 81.2176 19.481 82.0126C19.8554 82.8075 20.3843 83.4414 21.0675 83.9145C21.7508 84.3875 22.5523 84.624 23.472 84.624ZM24.2407 82.318C23.702 82.318 23.2388 82.1866 22.8512 81.9239C22.4636 81.6611 22.168 81.303 21.9643 80.8497C21.7606 80.3964 21.6588 79.8938 21.6588 79.342C21.6588 78.7902 21.7606 78.2941 21.9643 77.854C22.168 77.4138 22.4636 77.0623 22.8512 76.7996C23.2388 76.5368 23.702 76.4054 24.2407 76.4054C24.7662 76.4054 25.2195 76.5368 25.6006 76.7996C25.9816 77.0623 26.274 77.4138 26.4776 77.854C26.6813 78.2941 26.7831 78.7902 26.7831 79.342C26.7831 79.8938 26.6813 80.3964 26.4776 80.8497C26.274 81.303 25.9816 81.6611 25.6006 81.9239C25.2195 82.1866 24.7662 82.318 24.2407 82.318ZM35.1976 84.3875V78.5339C35.1976 78.1398 35.2994 77.7817 35.503 77.4598C35.7067 77.1379 35.9761 76.8817 36.3111 76.6912C36.6462 76.5006 37.0108 76.4054 37.405 76.4054C37.8123 76.4054 38.1835 76.5039 38.5185 76.701C38.8536 76.8981 39.1196 77.1642 39.3167 77.4992C39.5138 77.8343 39.6123 78.2055 39.6123 78.6128V84.3875H42.3125V78.6128C42.3125 77.785 42.1548 77.0295 41.8394 76.3463C41.5241 75.663 41.0478 75.1177 40.4106 74.7104C39.7733 74.3031 38.9685 74.0994 37.9962 74.0994C37.5232 74.0994 37.0436 74.1717 36.5575 74.3162C36.0713 74.4608 35.618 74.7038 35.1976 75.0455V70H32.4974V84.3875H35.1976ZM50.1159 84.624C51.1539 84.624 52.0802 84.3908 52.8949 83.9243C53.7095 83.4579 54.3533 82.8272 54.8264 82.0323C55.2994 81.2373 55.5359 80.3472 55.5359 79.3617C55.5359 78.3763 55.2994 77.4861 54.8264 76.6912C54.3533 75.8962 53.7095 75.2656 52.8949 74.7991C52.0802 74.3327 51.1539 74.0994 50.1159 74.0994C49.0779 74.0994 48.1516 74.3327 47.337 74.7991C46.5224 75.2656 45.8785 75.8962 45.4055 76.6912C44.9325 77.4861 44.696 78.3763 44.696 79.3617C44.696 80.3472 44.9325 81.2373 45.4055 82.0323C45.8785 82.8272 46.5224 83.4579 47.337 83.9243C48.1516 84.3908 49.0779 84.624 50.1159 84.624ZM50.1159 82.318C49.5641 82.318 49.0878 82.1866 48.687 81.9239C48.2863 81.6611 47.9775 81.3063 47.7607 80.8596C47.5439 80.4128 47.4355 79.9136 47.4355 79.3617C47.4355 78.8099 47.5439 78.3106 47.7607 77.8638C47.9775 77.4171 48.2863 77.0623 48.687 76.7996C49.0878 76.5368 49.5641 76.4054 50.1159 76.4054C50.6678 76.4054 51.1441 76.5368 51.5448 76.7996C51.9456 77.0623 52.2543 77.4171 52.4711 77.8638C52.6879 78.3106 52.7963 78.8099 52.7963 79.3617C52.7963 79.9136 52.6879 80.4128 52.4711 80.8596C52.2543 81.3063 51.9456 81.6611 51.5448 81.9239C51.1441 82.1866 50.6678 82.318 50.1159 82.318ZM60.521 84.3875V77.2726C60.521 77.0886 60.5834 76.9375 60.7082 76.8193C60.833 76.701 60.9809 76.6419 61.1517 76.6419H63.4576V74.3359H60.6787C59.7852 74.3359 59.0855 74.5889 58.5797 75.0947C58.0738 75.6006 57.8209 76.3003 57.8209 77.1937V84.3875H60.521ZM69.3099 84.624C69.888 84.624 70.3873 84.5386 70.8078 84.3678C71.2282 84.1969 71.5863 83.967 71.8819 83.6779C72.1775 83.3889 72.4239 83.067 72.621 82.7122H72.6604V84.3875H75.3605V79.3814C75.3605 78.4091 75.1569 77.5222 74.7495 76.7207C74.3422 75.9192 73.751 75.282 72.9758 74.809C72.2005 74.3359 71.2479 74.0994 70.118 74.0994C69.0011 74.0994 68.042 74.3327 67.2405 74.7991C66.439 75.2656 65.8247 75.8995 65.3977 76.701C64.9707 77.5025 64.7572 78.396 64.7572 79.3814C64.7572 80.3406 64.9444 81.2176 65.3189 82.0126C65.6933 82.8075 66.2222 83.4414 66.9054 83.9145C67.5887 84.3875 68.3902 84.624 69.3099 84.624ZM70.0786 82.318C69.5398 82.318 69.0767 82.1866 68.6891 81.9239C68.3015 81.6611 68.0058 81.303 67.8022 80.8497C67.5985 80.3964 67.4967 79.8938 67.4967 79.342C67.4967 78.7902 67.5985 78.2941 67.8022 77.854C68.0058 77.4138 68.3015 77.0623 68.6891 76.7996C69.0767 76.5368 69.5398 76.4054 70.0786 76.4054C70.6041 76.4054 71.0574 76.5368 71.4385 76.7996C71.8195 77.0623 72.1118 77.4138 72.3155 77.854C72.5192 78.2941 72.621 78.7902 72.621 79.342C72.621 79.8938 72.5192 80.3964 72.3155 80.8497C72.1118 81.303 71.8195 81.6611 71.4385 81.9239C71.0574 82.1866 70.6041 82.318 70.0786 82.318ZM84.4845 84.3875V82.0815H82.2968C82.126 82.0815 81.9782 82.0191 81.8534 81.8943C81.7285 81.7695 81.6661 81.6217 81.6661 81.4508L81.6659 76.6419H84.4845V74.3359L81.6659 74.3363L81.6661 71.8132H78.966L78.9658 74.3363L77.2513 74.3359V76.6419H78.9658L78.966 81.5297C78.966 82.366 79.1943 83.0363 79.6508 83.5406L79.7248 83.6188C80.2307 84.1313 80.9303 84.3875 81.8238 84.3875H84.4845ZM98.8128 84.3875V82.0815H96.6252C96.4543 82.0815 96.3065 82.0191 96.1817 81.8943C96.0569 81.7695 95.9945 81.6217 95.9945 81.4508L95.9943 76.6419H98.8128V74.3359L95.9943 74.3363L95.9945 71.8132H93.2944L93.2942 74.3363L91.5797 74.3359V76.6419H93.2942L93.2944 81.5297C93.2944 82.366 93.5226 83.0363 93.9792 83.5406L94.0531 83.6188C94.559 84.1313 95.2587 84.3875 96.1521 84.3875H98.8128ZM108.804 84.3875V82.0815H106.005C105.519 82.0815 105.082 82.0126 104.695 81.8746C104.307 81.7366 103.985 81.5297 103.729 81.2538C103.473 80.9778 103.292 80.6362 103.187 80.2289H109.987C110.013 80.1369 110.033 80.0022 110.046 79.8249C110.059 79.6475 110.065 79.4931 110.065 79.3617C110.065 78.3894 109.901 77.5058 109.573 76.7109C109.244 75.9159 108.728 75.282 108.025 74.809C107.323 74.3359 106.406 74.0994 105.276 74.0994C104.33 74.0994 103.483 74.3162 102.734 74.7498C101.985 75.1834 101.393 75.7944 100.96 76.5828C100.526 77.3711 100.309 78.2974 100.309 79.3617C100.309 80.3077 100.543 81.1618 101.009 81.9239C101.476 82.6859 102.133 83.2871 102.98 83.7272C103.828 84.1674 104.823 84.3875 105.966 84.3875H108.804ZM107.365 78.4157H103.167C103.207 78.1529 103.276 77.8967 103.374 77.647C103.473 77.3974 103.607 77.174 103.778 76.9769C103.949 76.7798 104.163 76.6222 104.419 76.5039C104.675 76.3857 104.967 76.3265 105.296 76.3265C105.545 76.3265 105.775 76.3594 105.986 76.4251C106.196 76.4908 106.38 76.5828 106.537 76.701C106.695 76.8193 106.833 76.9638 106.951 77.1346C107.07 77.3054 107.162 77.4992 107.227 77.716C107.293 77.9328 107.339 78.166 107.365 78.4157ZM118.48 84.3875V82.0815H117.218C116.667 82.0815 116.19 81.9633 115.79 81.7268C115.389 81.4903 115.08 81.1651 114.863 80.7512C114.646 80.3373 114.538 79.8741 114.538 79.3617C114.538 78.8493 114.646 78.3861 114.863 77.9722C115.08 77.5583 115.389 77.2332 115.79 76.9966C116.19 76.7601 116.667 76.6419 117.218 76.6419H118.48V74.3359H117.218C116.18 74.3359 115.254 74.5593 114.439 75.0061C113.625 75.4528 112.981 76.0539 112.508 76.8094C112.035 77.5649 111.799 78.4157 111.799 79.3617C111.799 80.3077 112.035 81.1585 112.508 81.914C112.981 82.6695 113.625 83.2706 114.439 83.7174C115.254 84.1641 116.18 84.3875 117.218 84.3875H118.48ZM123.465 84.3875V78.5339C123.465 78.1398 123.567 77.7817 123.77 77.4598C123.974 77.1379 124.243 76.8817 124.578 76.6912C124.914 76.5006 125.278 76.4054 125.672 76.4054C126.08 76.4054 126.451 76.5039 126.786 76.701C127.121 76.8981 127.387 77.1642 127.584 77.4992C127.781 77.8343 127.88 78.2055 127.88 78.6128V84.3875H130.58V78.6128C130.58 77.785 130.422 77.0295 130.107 76.3463C129.791 75.663 129.315 75.1177 128.678 74.7104C128.041 74.3031 127.236 74.0994 126.264 74.0994C125.791 74.0994 125.311 74.1717 124.825 74.3162C124.339 74.4608 123.885 74.7038 123.465 75.0455V70H120.765V84.3875H123.465Z" fill="#FDFDFD"/>
</svg>
