<svg width="74" height="54" viewBox="0 0 74 54" fill="none" xmlns="http://www.w3.org/2000/svg">
<path d="M49.8491 1.84036C49.4694 2.65488 49.1049 3.40792 49.0137 3.5155C48.9378 3.62308 48.1784 3.82286 47.343 3.96118C46.5076 4.09949 45.6722 4.23781 45.5051 4.26854C45.2317 4.33002 45.3684 4.52981 46.5532 5.69779L47.905 7.06557L47.6164 8.92513C47.4493 9.95481 47.3582 10.8001 47.3885 10.8001C47.4189 10.8001 48.1784 10.4159 49.0745 9.93944L50.7149 9.07881L52.4312 9.95481L54.1323 10.8154L54.0412 10.0778C53.9804 9.67818 53.8286 8.83292 53.7071 8.20282L53.4792 7.06557L54.8006 5.71316C55.5297 4.96012 56.1069 4.33002 56.0613 4.29928C56.0006 4.23781 54.4209 3.96118 53.1451 3.79213L52.416 3.69992L51.5806 2.02478C51.125 1.10268 50.6997 0.349634 50.6389 0.349634C50.5782 0.365003 50.2288 1.02584 49.8491 1.84036Z" fill="white"/>
<path d="M29.7396 3.25417C28.9954 4.74489 29.1169 4.66805 27.1879 4.97542C26.5348 5.06763 26.0032 5.19057 26.0032 5.22131C26.0032 5.25205 26.4892 5.74383 27.0968 6.32783L28.1752 7.37287L27.9473 8.89433C27.8106 9.72421 27.7347 10.4465 27.7651 10.4619C27.7803 10.4926 28.4182 10.2006 29.1624 9.80106L30.5294 9.09412L31.8509 9.80106C32.5799 10.1853 33.2178 10.4619 33.2634 10.4312C33.2938 10.3851 33.2026 9.69348 33.0508 8.87896L32.7774 7.40361L33.8861 6.28172L34.9949 5.14447L34.5696 5.05226C34.3266 5.00616 33.6583 4.89858 33.0811 4.80637C32.504 4.71416 31.9724 4.60658 31.8964 4.54511C31.8205 4.499 31.4863 3.88427 31.1522 3.17733C30.818 2.47039 30.5142 1.8864 30.4839 1.8864C30.4383 1.8864 30.1041 2.50113 29.7396 3.25417Z" fill="white"/>
<path d="M61.7731 3.22348C61.4693 3.71526 60.9073 4.6681 60.5276 5.3443C59.3581 7.38828 53.0851 18.1307 52.6598 18.8069C52.5839 18.9452 52.3864 19.2987 52.2194 19.5753C52.0675 19.8673 51.5207 20.8202 50.9891 21.7115C49.4094 24.401 46.1135 30.0411 45.7338 30.7327C45.5363 31.1015 45.3085 31.3935 45.2477 31.3935C45.187 31.3935 45.0047 31.1015 44.8376 30.7327C44.5035 29.9489 42.4226 25.1694 41.7088 23.5096C41.4202 22.8641 40.9645 21.7884 40.6759 21.1275C40.3873 20.482 39.8861 19.2833 39.5368 18.4842C39.1874 17.685 38.7166 16.5939 38.4888 16.0714L38.0787 15.1185L31.912 15.1032H25.7606L24.8796 17.6697C24.3936 19.0989 23.6797 21.189 23.2696 22.3262C22.5862 24.3087 18.956 34.959 17.5435 39.1545C17.179 40.2456 16.6474 41.8132 16.3588 42.6124C16.0854 43.4115 15.812 44.226 15.7512 44.4258L15.6601 44.7639L20.9154 44.7332L26.1859 44.6871L28.2212 39.4619C31.8817 30.1026 32.4588 28.6887 32.5955 28.6426C32.717 28.6119 34.3878 32.6998 37.4863 40.6145C37.866 41.5827 38.3976 42.9197 38.6558 43.5652L39.1419 44.7486L44.306 44.7639H49.4854L49.9562 43.9494C50.2145 43.5191 51.5359 41.2446 52.8877 38.924C55.3331 34.7284 57.3835 31.2398 57.6721 30.7634C57.7481 30.6251 57.9607 30.2716 58.1126 29.995C58.2645 29.703 59.5251 27.5361 60.9073 25.1694C62.2895 22.8027 63.7932 20.2208 64.2488 19.437C64.7045 18.6532 65.1146 18.0385 65.145 18.0846C65.1905 18.1153 65.0994 19.145 64.9779 20.3591C64.7349 22.6336 64.3855 25.9685 63.7476 32.1619C63.5502 34.1444 63.1704 37.7406 62.9122 40.1381C62.6692 42.5509 62.4566 44.5949 62.4566 44.7178C62.4566 44.8715 63.3679 44.9176 67.2258 44.9176H72.0103L72.0862 44.1185C72.1318 43.6728 72.2077 42.3357 72.2533 41.1524C72.3748 37.9097 72.9064 25.5997 73.0887 22.0189C73.1646 20.2823 73.3013 17.2086 73.3925 15.18C73.7114 7.5727 73.8481 4.39147 73.9241 3.37716L74 2.34749H68.1523H62.3047L61.7731 3.22348Z" fill="white"/>
<path d="M13.1686 10.0624C12.8344 10.7693 12.561 11.3533 12.5458 11.384C12.5307 11.3994 11.8927 11.5223 11.1333 11.6299C10.3587 11.7529 9.70555 11.8758 9.67517 11.9065C9.62961 11.9373 10.0701 12.4291 10.6321 12.9977L11.6649 14.0427L11.4523 15.4259C11.3307 16.1943 11.2852 16.8551 11.3156 16.9012C11.3611 16.9473 11.9079 16.7015 12.5307 16.348C13.1534 15.9945 13.7458 15.7179 13.8673 15.7179C13.9736 15.7179 14.6115 15.9945 15.2646 16.348C15.9177 16.6861 16.4797 16.9473 16.5253 16.9166C16.5557 16.8705 16.4645 16.2097 16.3278 15.4259L16.0848 14.012L17.1177 12.9516C18.2416 11.799 18.2416 11.8143 16.9658 11.6453C15.1279 11.4148 15.2646 11.4916 14.5659 10.0931C14.2166 9.38615 13.8976 8.80216 13.8521 8.80216C13.8065 8.80216 13.4875 9.37078 13.1686 10.0624Z" fill="white"/>
<path d="M3.44784 21.4809C3.03775 22.3569 2.74916 22.7718 2.58208 22.7872C2.44539 22.7872 1.79227 22.864 1.16953 22.9562L0 23.1406L1.03283 24.1857L2.05048 25.2307L1.82265 26.6139C1.70114 27.3823 1.62519 28.0124 1.67076 28.0124C1.70114 28.0124 2.27831 27.7204 2.94661 27.3669L4.1769 26.7215L5.40719 27.3669C6.07549 27.705 6.65266 27.9663 6.68304 27.9509C6.71342 27.9202 6.62229 27.2901 6.48559 26.5524L6.22738 25.2L7.24502 24.1703L8.26267 23.1253L7.83738 23.0331C7.59436 22.987 7.06276 22.9101 6.63747 22.864C5.45275 22.7103 5.43757 22.695 4.81483 21.404C4.49586 20.7278 4.1769 20.1746 4.13133 20.1746C4.08577 20.1746 3.7668 20.7586 3.44784 21.4809Z" fill="white"/>
<path d="M3.52358 35.6963C2.97678 36.8489 2.96159 36.8489 1.65536 37.018C1.18451 37.0641 0.759229 37.1716 0.713663 37.2331C0.683286 37.2946 1.03263 37.7095 1.48829 38.1398C2.23254 38.8314 2.32367 39.0005 2.26291 39.3693C2.21735 39.6152 2.12621 40.1531 2.06546 40.5834L1.97433 41.3518L3.05273 40.7985L4.13113 40.2299L5.19434 40.7832C5.7867 41.0905 6.25755 41.275 6.25755 41.1981C6.25755 41.1213 6.18161 40.568 6.07528 39.984L5.90821 38.9083L6.68283 38.1091C7.12331 37.6634 7.47265 37.2485 7.47265 37.2024C7.47265 37.1409 7.07774 37.0487 6.60689 36.9872C5.30066 36.8335 5.16396 36.7413 4.61717 35.6348C4.32858 35.0816 4.08556 34.6205 4.07037 34.6205C4.05518 34.6205 3.81216 35.0969 3.52358 35.6963Z" fill="white"/>
<path d="M6.39426 50.2655C6.24238 50.2962 5.98417 50.8495 5.65002 51.956C5.37662 52.8627 5.11841 53.6926 5.07285 53.7848C5.02728 53.9231 5.17917 53.9846 5.52851 53.9846C5.9386 53.9846 6.09049 53.9078 6.212 53.6311C6.47021 53.0779 7.62455 53.124 7.62455 53.6773C7.62455 53.9231 7.73087 53.9846 8.15616 53.9846C8.44474 53.9846 8.68776 53.9385 8.68776 53.877C8.68776 53.8156 8.42955 52.9857 8.12578 52.0482C7.59417 50.3884 7.54861 50.327 7.10813 50.2655C6.84993 50.2348 6.53096 50.2348 6.39426 50.2655ZM7.06257 51.4796C7.10813 51.7255 7.19927 52.0328 7.24483 52.1712C7.33597 52.4017 7.27521 52.4478 6.94106 52.4478C6.56134 52.4478 6.53096 52.4171 6.6221 51.9714C6.66766 51.7101 6.71323 51.3874 6.71323 51.2798C6.71323 50.8956 6.97144 51.0493 7.06257 51.4796Z" fill="white"/>
<path d="M14.0796 50.3732C13.5329 50.6652 13.4417 50.8035 13.2291 51.6027C12.8645 52.9551 13.624 53.9847 14.9758 53.9847C16.2061 53.9694 16.7377 53.37 16.7377 52.0022C16.7377 51.3721 16.6617 51.1416 16.3276 50.7574C15.796 50.1734 14.7783 50.0044 14.0796 50.3732ZM15.4314 51.157C15.7352 51.2799 15.7808 52.7399 15.4922 53.0319C15.2796 53.2471 14.7783 53.2624 14.4897 53.078C14.2012 52.909 14.0796 51.8024 14.2923 51.3875C14.4746 51.0648 14.9454 50.9726 15.4314 51.157Z" fill="white"/>
<path d="M22.206 50.2653C21.8718 50.3114 21.7655 50.4805 21.325 51.879C21.0668 52.7396 20.839 53.5388 20.839 53.6463C20.839 54.0152 20.5352 53.8154 20.0795 53.1392L19.6087 52.4476L19.9428 52.0019C20.2314 51.6177 20.2466 51.4948 20.0947 51.0184C19.8821 50.4036 19.6391 50.2961 18.3784 50.2961H17.4975V52.1403V53.9844H17.9531C18.3936 53.9844 18.4088 53.9537 18.4088 53.2929C18.4088 52.9087 18.4847 52.6013 18.5607 52.6013C18.6518 52.6013 18.91 52.9087 19.1378 53.2929L19.5479 53.9844H20.6263C21.5984 53.9844 21.7199 53.9537 21.8566 53.631C21.9933 53.3544 22.1604 53.2621 22.5705 53.2468C23.0262 53.2314 23.1477 53.2929 23.2692 53.6002C23.3755 53.8922 23.5274 53.9844 23.8767 53.9844C24.4235 53.9844 24.4387 54.1535 23.6945 51.8022C23.178 50.2346 23.1021 50.1578 22.206 50.2653ZM19.1378 51.4333C19.1075 51.6331 18.9556 51.7714 18.7581 51.8022C18.4847 51.8483 18.4088 51.7868 18.4088 51.4794C18.4088 51.0184 18.4999 50.9262 18.8796 51.0184C19.0923 51.0798 19.1682 51.2182 19.1378 51.4333ZM22.7224 51.4794C22.7831 51.7253 22.8591 52.0327 22.9046 52.171C22.9654 52.3861 22.8895 52.4476 22.5705 52.4476C22.206 52.4476 22.1756 52.4169 22.2667 51.9712C22.3123 51.7099 22.3579 51.3872 22.3579 51.2796C22.3579 50.8954 22.6312 51.0491 22.7224 51.4794Z" fill="white"/>
<path d="M29.9832 50.3273C29.5579 50.5424 29.406 51.0803 29.649 51.526C29.8009 51.8026 29.7705 51.9102 29.5123 52.2022C29.1326 52.6018 29.1022 53.1704 29.4212 53.6314C29.6338 53.9388 29.7857 53.9542 31.335 53.9542H33.0057L32.6868 53.6007C32.383 53.2626 32.3678 53.2165 32.5956 52.7862C32.7323 52.5249 32.8387 52.2329 32.8387 52.1407C32.8387 51.8794 32.0488 51.9717 31.8514 52.2483C31.6843 52.4788 31.6236 52.4788 31.4109 52.3098C31.1831 52.11 31.1831 52.0792 31.4717 51.8026C31.8058 51.4799 31.8818 50.7268 31.5932 50.4809C31.2742 50.235 30.3629 50.1428 29.9832 50.3273ZM30.8338 51.3262C30.7426 51.4338 30.6211 51.4799 30.5452 51.4338C30.3477 51.3108 30.3781 50.942 30.6059 50.8651C30.8641 50.7729 31.0312 51.0957 30.8338 51.3262ZM30.7882 52.9091C31.0616 53.2165 31.0464 53.2165 30.6667 53.2165C30.4388 53.2165 30.2566 53.1857 30.2566 53.155C30.2566 53.1243 30.211 52.986 30.1654 52.8476C30.0287 52.4942 30.454 52.5403 30.7882 52.9091Z" fill="white"/>
<path d="M48.5734 51.9099C48.2544 52.832 47.9658 53.6926 47.9203 53.7848C47.8747 53.9231 48.0266 53.9846 48.467 53.9846C48.9835 53.9846 49.0898 53.9385 49.0898 53.6926C49.0898 53.0933 50.2289 53.0164 50.4871 53.6004C50.6238 53.9078 50.7757 53.9846 51.1858 53.9846C51.6111 53.9846 51.6871 53.9385 51.5959 53.708C51.5352 53.5697 51.2618 52.7705 50.9884 51.9406C50.715 51.1108 50.4568 50.3884 50.4112 50.3577C50.3808 50.3116 50.0619 50.2655 49.7429 50.2501L49.1354 50.2194L48.5734 51.9099ZM50.0771 51.8638C50.1834 52.4171 50.1682 52.4478 49.7885 52.4478C49.3328 52.4478 49.3328 52.4324 49.5606 51.6179C49.7429 50.9417 49.9252 51.0339 50.0771 51.8638Z" fill="white"/>
<path d="M52.8721 50.496C51.9912 51.0954 51.733 52.1097 52.2038 53.1394C52.5076 53.7541 52.9785 53.9846 53.9505 53.9846C55.1201 53.9846 55.1656 53.9385 55.1656 52.8166V51.8331H54.391C53.6771 51.8331 53.6316 51.8638 53.6771 52.1712C53.7075 52.4017 53.8138 52.5093 53.9961 52.5093C54.1784 52.4939 54.2543 52.5861 54.2543 52.8474C54.2543 53.1547 54.1784 53.2162 53.829 53.2162C53.2519 53.2162 53.0392 52.9549 53.0392 52.248C53.0392 51.2952 53.2367 51.0646 54.0721 51.0646C54.6188 51.0646 54.8315 50.9878 54.9834 50.7573C55.1505 50.4807 55.1201 50.4345 54.7859 50.2962C54.1328 50.0503 53.4189 50.1272 52.8721 50.496Z" fill="white"/>
<path d="M0.335136 52.1558V54L0.745232 53.9539C1.15533 53.9078 1.15533 53.8924 1.14014 52.7859C1.14014 52.1865 1.18571 51.6794 1.26165 51.6794C1.33759 51.6794 1.39835 51.787 1.39835 51.9099C1.39835 52.0482 1.51986 52.5708 1.67174 53.0625C1.91476 53.9385 1.96033 53.9846 2.41599 53.9846C2.87165 53.9846 2.91722 53.9232 3.06911 53.3238C3.16024 52.9703 3.32732 52.4017 3.44883 52.0636L3.64628 51.4489L3.66147 52.7091L3.67666 53.9846H4.13232H4.58798V52.1404V50.2962H3.90449H3.23618L2.91722 51.3567C2.75014 51.9253 2.61345 52.4785 2.61345 52.5861C2.61345 52.6783 2.55269 52.7552 2.47675 52.7552C2.41599 52.7552 2.20335 52.2019 2.0059 51.5257L1.65656 50.2962H1.00344H0.335136V52.1558Z" fill="white"/>
<path d="M9.29524 52.1405V53.9847H9.7509C10.1914 53.9847 10.2066 53.9694 10.2066 53.2163V52.4479H10.8141H11.4217V53.2163V53.9847H11.9533H12.4849V52.1405V50.2964H11.9533C11.4217 50.2964 11.4217 50.2964 11.4217 50.9879V51.6795H10.8141H10.2066V50.9879C10.2066 50.3271 10.1914 50.2964 9.7509 50.2964H9.29524V52.1405Z" fill="white"/>
<path d="M24.6356 50.6804C24.6356 51.0032 24.7115 51.0646 25.0912 51.0646H25.5469V52.5246V53.9846H26.0025H26.4582V52.5246V51.0646H26.9139C27.2936 51.0646 27.3695 51.0032 27.3695 50.6804C27.3695 50.2962 27.3543 50.2962 26.0025 50.2962C24.6507 50.2962 24.6356 50.2962 24.6356 50.6804Z" fill="white"/>
<path d="M34.9642 52.1558V54L35.3895 53.9539C35.7996 53.9078 35.7996 53.9078 35.7996 52.7244C35.7844 52.0636 35.8148 51.5718 35.8603 51.6179C35.9211 51.664 36.0882 52.2019 36.2552 52.8013C36.5438 53.8463 36.5894 53.9078 37.0451 53.9539C37.5007 54 37.5311 53.9693 37.7741 53.1086C38.245 51.3874 38.2753 51.372 38.2905 52.7091L38.3057 53.9846H38.7614H39.217V52.1404V50.2962H38.5487H37.8804L37.5615 51.3567C37.3792 51.9407 37.2425 52.4939 37.2425 52.5861C37.2425 52.6783 37.1818 52.7552 37.1058 52.7552C37.0451 52.7552 36.8324 52.2019 36.635 51.5257L36.2856 50.2962H35.6325H34.9642V52.1558Z" fill="white"/>
<path d="M40.8118 50.4808C40.7663 50.5884 40.5384 51.2953 40.2954 52.0637C40.0524 52.8168 39.8094 53.5698 39.7486 53.7081C39.6575 53.9386 39.7334 53.9847 40.1891 53.9847C40.4929 53.9847 40.7359 53.9233 40.7359 53.8464C40.7359 53.5391 41.2067 53.2471 41.6168 53.2932C41.8447 53.3239 42.0725 53.3546 42.1181 53.3546C42.1788 53.37 42.2548 53.5083 42.3003 53.6774C42.3611 53.9079 42.513 53.9847 42.8471 53.9847C43.1205 53.9847 43.318 53.9079 43.318 53.785C43.318 53.6927 43.0749 52.8629 42.7712 51.9408L42.2092 50.2964H41.5409C41.146 50.2964 40.8422 50.3732 40.8118 50.4808ZM41.8598 52.0176C41.951 52.4018 41.9206 52.4479 41.5561 52.4479C41.1764 52.4479 41.1612 52.4172 41.2675 51.8793C41.4498 50.8496 41.5864 50.8803 41.8598 52.0176Z" fill="white"/>
<path d="M43.9261 52.1405V53.9847H44.3058C44.6552 53.9847 44.6856 53.9386 44.7007 53.1702C44.7159 52.7399 44.7007 52.1867 44.6856 51.9408C44.64 51.2338 44.883 51.4797 45.5209 52.7553L46.1285 53.9847H46.7664H47.4195V52.1405V50.2964H46.9487H46.4778L46.5386 51.449C46.569 52.0791 46.5386 52.6016 46.4778 52.6016C46.4323 52.6016 46.1133 52.0791 45.7943 51.449L45.2172 50.2964H44.5792H43.9261V52.1405Z" fill="white"/>
<path d="M56.0759 52.1404V53.9846H57.1391C58.1719 53.9846 58.2023 53.9693 58.2023 53.6004C58.2023 53.2469 58.1415 53.2162 57.5947 53.2162C57.048 53.2162 56.9872 53.1701 56.9872 52.832C56.9872 52.4939 57.048 52.4478 57.5036 52.4478C57.8833 52.4478 58.0352 52.371 58.096 52.1558C58.1871 51.7562 58.096 51.6794 57.4884 51.6794C57.0935 51.6794 56.9872 51.6179 56.9872 51.372C56.9872 51.1108 57.0935 51.0646 57.5947 51.0646C58.1415 51.0646 58.2023 51.0185 58.2023 50.6804C58.2023 50.3116 58.1719 50.2962 57.1391 50.2962H56.0759V52.1404Z" fill="white"/>
<path d="M58.9629 52.1404V53.9846H59.3426C59.7223 53.9846 59.7223 53.9693 59.7223 52.7091C59.7375 51.3106 59.8439 51.3567 60.254 52.9396C60.5122 53.9539 60.5425 53.9846 61.0134 53.9846C61.4842 53.9846 61.5146 53.9539 61.7728 52.9396C62.1829 51.3567 62.2892 51.3106 62.3044 52.7244V54L62.7297 53.9539L63.1398 53.9078V52.1404V50.3731H62.4715H61.8032L61.4994 51.4489C61.3475 52.0329 61.1501 52.5861 61.0893 52.663C61.0134 52.7398 60.8767 52.4939 60.7856 52.1251C60.2995 50.2501 60.3147 50.2962 59.616 50.2962H58.9629V52.1404Z" fill="white"/>
<path d="M63.9755 52.1404V53.9846H65.1298C66.2234 53.9846 66.269 53.9693 66.2234 53.6311C66.193 53.3545 66.0715 53.2777 65.6159 53.2469C65.1146 53.2008 65.0387 53.1394 65.0387 52.8166C65.0387 52.4939 65.1146 52.4478 65.5703 52.4478C66.0411 52.4478 66.1019 52.4017 66.1019 52.0636C66.1019 51.7255 66.0411 51.6794 65.5855 51.6794C65.2058 51.6794 65.0539 51.6025 64.9931 51.3874C64.9324 51.1261 65.0083 51.08 65.5551 51.0339C66.0715 51.0032 66.193 50.9263 66.2234 50.6343C66.269 50.3116 66.2234 50.2962 65.1298 50.2962H63.9755V52.1404Z" fill="white"/>
<path d="M66.8598 52.1252V53.9847H67.3155H67.7559L67.8015 52.7092L67.8471 51.449L68.4698 52.6784L69.1077 53.9079H69.7608H70.4292L70.4747 52.0944L70.5203 50.2964H70.0646H69.609L69.5634 51.5412L69.5178 52.786L68.8951 51.5719L68.2572 50.3732L67.5585 50.3271L66.8598 50.281V52.1252Z" fill="white"/>
<path d="M71.0221 50.6345C71.0524 50.9111 71.1891 51.0033 71.5385 51.034L72.0245 51.0801V52.5401V53.9847H72.4802H72.9358V52.5248V51.0648H73.3915C73.7712 51.0648 73.8472 51.0033 73.8472 50.6806C73.8472 50.2964 73.8472 50.2964 72.4042 50.2964C70.9917 50.2964 70.9613 50.3117 71.0221 50.6345Z" fill="white"/>
</svg>
