<svg width="173" height="77" viewBox="0 0 173 77" fill="none" xmlns="http://www.w3.org/2000/svg">
<g filter="url(#filter0_d_457_3502)">
<path d="M51.253 26.5781C53.2799 24.759 55.8134 23.8495 58.8537 23.8495C60.3304 23.8495 61.7058 24.0987 62.9798 24.5971C64.2828 25.0705 65.412 25.7309 66.3675 26.5781C67.352 27.4254 68.1193 28.4222 68.6694 29.5684C69.2196 30.6898 69.4946 31.8984 69.4946 33.1942C69.4946 34.49 69.2196 35.711 68.6694 36.8573C68.1482 37.9787 67.4099 38.963 66.4544 39.8102C65.4989 40.6575 64.3696 41.3303 63.0666 41.8287C61.7637 42.3021 60.3594 42.5389 58.8537 42.5389C57.3191 42.5389 55.9003 42.3021 54.5973 41.8287C53.3233 41.3303 52.2085 40.6575 51.253 39.8102C50.2975 38.963 49.5447 37.9787 48.9946 36.8573C48.4734 35.711 48.2128 34.49 48.2128 33.1942C48.2128 30.5527 49.2262 28.3474 51.253 26.5781ZM58.8537 26.9893C56.8269 26.9893 55.1909 27.5624 53.9458 28.7087C52.7297 29.855 52.1217 31.3502 52.1217 33.1942C52.1217 35.0382 52.7297 36.5333 53.9458 37.6796C55.1909 38.8259 56.8269 39.3991 58.8537 39.3991C60.9095 39.3991 62.5455 38.8259 63.7616 37.6796C64.9777 36.5084 65.5857 35.0133 65.5857 33.1942C65.5857 31.3751 64.9777 29.8924 63.7616 28.7461C62.5455 27.5749 60.9095 26.9893 58.8537 26.9893Z" fill="white"/>
<path d="M76.4472 26.5781C78.4741 24.759 81.0076 23.8495 84.0479 23.8495C85.5246 23.8495 86.8999 24.0987 88.174 24.5971C89.4769 25.0705 90.6062 25.7309 91.5617 26.5781C92.5462 27.4254 93.3135 28.4222 93.8636 29.5684C94.4138 30.6898 94.6888 31.8984 94.6888 33.1942C94.6888 34.49 94.4138 35.711 93.8636 36.8573C93.3424 37.9787 92.6041 38.963 91.6486 39.8102C90.693 40.6575 89.5638 41.3303 88.2608 41.8287C86.9579 42.3021 85.5535 42.5389 84.0479 42.5389C82.5133 42.5389 81.0945 42.3021 79.7915 41.8287C78.5175 41.3303 77.4027 40.6575 76.4472 39.8102C75.4917 38.963 74.7389 37.9787 74.1887 36.8573C73.6675 35.711 73.4069 34.49 73.4069 33.1942C73.4069 30.5527 74.4204 28.3474 76.4472 26.5781ZM84.0479 26.9893C82.021 26.9893 80.3851 27.5624 79.14 28.7087C77.9239 29.855 77.3159 31.3502 77.3159 33.1942C77.3159 35.0382 77.9239 36.5333 79.14 37.6796C80.3851 38.8259 82.021 39.3991 84.0479 39.3991C86.1037 39.3991 87.7396 38.8259 88.9557 37.6796C90.1719 36.5084 90.7799 35.0133 90.7799 33.1942C90.7799 31.3751 90.1719 29.8924 88.9557 28.7461C87.7396 27.5749 86.1037 26.9893 84.0479 26.9893Z" fill="white"/>
<path d="M115.54 15.9999H119.449V42.1651H109.242C106.086 42.1651 103.523 41.3054 101.555 39.5859C99.5856 37.8416 98.6011 35.6487 98.6011 33.0073C98.6011 30.4157 99.6146 28.2477 101.641 26.5034C103.697 24.7341 106.129 23.8495 108.938 23.8495C110.733 23.8495 112.413 24.2233 113.976 24.9708V28.3349C112.528 27.4378 110.849 26.9893 108.938 26.9893C107.201 26.9893 105.724 27.55 104.508 28.6713C103.321 29.7678 102.727 31.2131 102.727 33.0073C102.727 34.8264 103.292 36.2842 104.421 37.3806C105.579 38.477 107.186 39.0253 109.242 39.0253H115.54V15.9999Z" fill="white"/>
<path d="M124.659 35.0631V15.9999H128.568V35.0631C128.568 35.9602 128.684 36.6953 128.915 37.2685C129.176 37.8167 129.567 38.2154 130.088 38.4646C130.609 38.6889 131.116 38.8384 131.608 38.9131C132.1 38.9879 132.752 39.0253 133.563 39.0253V42.1651C130.32 42.1651 128.018 41.6293 126.657 40.5578C125.325 39.4863 124.659 37.6547 124.659 35.0631Z" fill="white"/>
<path d="M135.714 24.2233H139.536V33.6053C139.536 35.6238 139.898 37.0317 140.622 37.8291C141.346 38.6266 142.677 39.0253 144.617 39.0253H149.178V24.2233H153V41.268C153 44.3829 152.044 46.7253 150.133 48.2952C148.251 49.89 145.283 50.6874 141.23 50.6874H138.103V47.5476H140.839C146.138 47.5476 148.917 45.7534 149.178 42.1651H145.53C141.736 42.1651 139.145 41.5919 137.755 40.4457C136.394 39.2994 135.714 36.9694 135.714 33.4558V24.2233Z" fill="white"/>
<g clip-path="url(#clip0_457_3502)">
<path d="M42.735 22.9375H32.0441V31.9974H42.735V22.9375Z" fill="white"/>
<path fill-rule="evenodd" clip-rule="evenodd" d="M23.455 25.7104C25.2368 24.2005 27.6678 23.2761 30.7479 22.9375V31.9974H20.0569C20.5405 29.3161 21.6732 27.2204 23.455 25.7104Z" fill="white"/>
<path fill-rule="evenodd" clip-rule="evenodd" d="M39.1661 50.325C37.3843 51.835 35.0324 52.7121 32.1105 52.9565V43.8966H42.8014C42.1596 46.6722 40.9479 48.815 39.1661 50.325Z" fill="#F46B6C"/>
<path fill-rule="evenodd" clip-rule="evenodd" d="M23.1614 39.0745C21.3796 37.5646 20.3445 35.5715 20.0562 33.0953H30.7469V42.1553C27.4717 41.6114 24.9432 40.5845 23.1614 39.0745Z" fill="white"/>
<path fill-rule="evenodd" clip-rule="evenodd" d="M23.6353 46.5194C25.4171 45.0095 27.769 44.1323 30.6909 43.8879V52.9478H20C20.6417 50.1722 21.8535 48.0294 23.6353 46.5194Z" fill="#F46B6C"/>
<path d="M42.735 33.0955H32.0441V42.1555H42.735V33.0955Z" fill="white"/>
</g>
</g>
<defs>
<filter id="filter0_d_457_3502" x="0" y="-6.10352e-05" width="173" height="77.0001" filterUnits="userSpaceOnUse" color-interpolation-filters="sRGB">
<feFlood flood-opacity="0" result="BackgroundImageFix"/>
<feColorMatrix in="SourceAlpha" type="matrix" values="0 0 0 0 0 0 0 0 0 0 0 0 0 0 0 0 0 0 127 0" result="hardAlpha"/>
<feOffset dy="4"/>
<feGaussianBlur stdDeviation="10"/>
<feComposite in2="hardAlpha" operator="out"/>
<feColorMatrix type="matrix" values="0 0 0 0 0 0 0 0 0 0 0 0 0 0 0 0 0 0 0.1 0"/>
<feBlend mode="normal" in2="BackgroundImageFix" result="effect1_dropShadow_457_3502"/>
<feBlend mode="normal" in="SourceGraphic" in2="effect1_dropShadow_457_3502" result="shape"/>
</filter>
<clipPath id="clip0_457_3502">
<rect width="22.8396" height="30.0625" fill="white" transform="translate(20 22.9375)"/>
</clipPath>
</defs>
</svg>
