<svg width="24" height="24" viewBox="0 0 24 24" fill="none" xmlns="http://www.w3.org/2000/svg">
<path d="M12 24C5.3724 24 0 18.6276 0 12C0 5.3724 5.3724 0 12 0C18.6276 0 24 5.3724 24 12C24 18.6276 18.6276 24 12 24ZM8.268 13.404L8.2836 13.3956L9.3276 16.8396C9.462 17.2128 9.6468 17.28 9.8712 17.2488C10.0968 17.2188 10.2156 17.0976 10.3632 16.956L11.7888 15.5784L14.8488 17.844C15.408 18.1524 15.81 17.9928 15.9492 17.3256L17.9376 7.9392C18.1572 7.0656 17.7732 6.7152 17.0952 6.9936L5.4156 11.5056C4.6188 11.8248 4.6236 12.2712 5.2716 12.4692L8.268 13.4052V13.404Z" fill="white"/>
</svg>
